<svg xmlns="http://www.w3.org/2000/svg" width="256" height="256" viewBox="0 0 256 256">
  <defs>
    <linearGradient id="g" x1="0" y1="0" x2="0" y2="1">
      <stop offset="0" stop-color="#e9f6ff"/>
      <stop offset="1" stop-color="#63a9ff"/>
    </linearGradient>
    <radialGradient id="shine" cx="35%" cy="30%" r="65%">
      <stop offset="0" stop-color="#ffffff" stop-opacity="0.95"/>
      <stop offset="1" stop-color="#ffffff" stop-opacity="0"/>
    </radialGradient>
    <filter id="soft" x="-20%" y="-20%" width="140%" height="140%">
      <feDropShadow dx="0" dy="8" stdDeviation="10" flood-color="#0b2a52" flood-opacity="0.18"/>
    </filter>
  </defs>

  <g filter="url(#soft)">
    <circle cx="128" cy="128" r="104" fill="url(#g)" stroke="#bfe0ff" stroke-width="6"/>
    <circle cx="112" cy="104" r="88" fill="url(#shine)"/>
  </g>

  <g fill="#103a66" opacity="0.92">
    <path d="M88 154c0 16 12 28 30 28h24c18 0 30-12 30-28v-6h-18v6c0 7-5 12-12 12h-24c-7 0-12-5-12-12v-48c0-7 5-12 12-12h24c7 0 12 5 12 12v6h18v-6c0-16-12-28-30-28h-24c-18 0-30 12-30 28v48z"/>
  </g>
</svg>
