<svg xmlns="http://www.w3.org/2000/svg" width="64" height="64" viewBox="0 0 24 24">
  <path fill="#103a66" d="M19.14 12.94c.04-.31.06-.63.06-.94s-.02-.63-.06-.94l2.03-1.58a.5.5 0 0 0 .12-.64l-1.92-3.32a.5.5 0 0 0-.6-.22l-2.39.96a7.02 7.02 0 0 0-1.63-.94l-.36-2.54A.5.5 0 0 0 13.9 1h-3.8a.5.5 0 0 0-.49.42l-.36 2.54c-.58.22-1.12.52-1.63.94l-2.39-.96a.5.5 0 0 0-.6.22L2.71 7.48a.5.5 0 0 0 .12.64l2.03 1.58c-.04.31-.06.63-.06.94s.02.63.06.94L2.83 14.52a.5.5 0 0 0-.12.64l1.92 3.32c.13.22.39.3.6.22l2.39-.96c.5.41 1.05.72 1.63.94l.36 2.54c.05.24.25.42.49.42h3.8c.24 0 .45-.18.49-.42l.36-2.54c.58-.22 1.12-.52 1.63-.94l2.39.96c.22.09.47 0 .6-.22l1.92-3.32a.5.5 0 0 0-.12-.64l-2.03-1.58ZM12 15.5A3.5 3.5 0 1 1 12 8a3.5 3.5 0 0 1 0 7.5Z"/>
</svg>
